# xmcd CD database file
#
# Track frame offsets:
#	150
#	5683
#	20316
#	32161
#	43099
#	50975
#	61768
#	73359
#	90153
#	99347
#	122674
#	131947
#	147100
#	154948
#	167950
#	180230
#	186637
#	200614
#	212246
#
# Disc length: 3067 seconds
#
# Revision: 0
# Processed by: cddbd v1.5.2PL0 Copyright (c) Steve Scherf et al.
# Submitted via: CDex 1.70beta2
#
DISCID=1a0bf913
DTITLE=Divna - In Concert - Théâtre des Abbesses, Paris
DYEAR=2006
DGENRE=Choral
TTITLE0=Exaposteilarion of the Dormition of the Mother of God
TTITLE1=As many as have been baptized into Christ
TTITLE2=The Magi, kings of Persia
TTITLE3=God is with us
TTITLE4=Rejoice, O Virgin
TTITLE5=Kontakion to the Mother of God
TTITLE6=Lesser supplicatory canon to the Mother of God
TTITLE7=O Lord of hosts, be with us
TTITLE8=Praise the Lord, O my soul
TTITLE9=Evlogitaria
TTITLE10=It is truly meet
TTITLE11=Cherubic hymn
TTITLE12=Kyrie eleison
TTITLE13=Polyeleos (Psalms 134-135)
TTITLE14=Kontakion of the Annunciation
TTITLE15=Many years
TTITLE16=Flow, bright waters
TTITLE17=Great Prokeimenon: Who is so great a God as our God?
TTITLE18=Kontakion of the Nativity of Christ
EXTD=YEAR: 2006
EXTT0=
EXTT1=
EXTT2=
EXTT3=
EXTT4=
EXTT5=
EXTT6=
EXTT7=
EXTT8=
EXTT9=
EXTT10=
EXTT11=
EXTT12=
EXTT13=
EXTT14=
EXTT15=
EXTT16=
EXTT17=
EXTT18=
PLAYORDER=
